Amstelvar-Roman-PWTH-max.ufo
<glyph name="exclam" format="2">
  <advance width="625"/>
  <unicode hex="0021"/>
  <outline>
    <contour>
      <point x="165" y="124" type="qcurve" smooth="yes"/>
      <point x="165" y="183"/>
      <point x="248" y="271"/>
      <point x="312" y="271" type="qcurve" smooth="yes"/>
      <point x="377" y="271"/>
      <point x="460" y="183"/>
      <point x="460" y="124" type="qcurve" smooth="yes"/>
      <point x="460" y="65"/>
      <point x="377" y="-23"/>
      <point x="312" y="-23" type="qcurve" smooth="yes"/>
      <point x="248" y="-23"/>
      <point x="165" y="65"/>
    </contour>
    <contour>
      <point x="215" y="1418" type="line" smooth="yes"/>
      <point x="212" y="1487"/>
      <point x="254" y="1578"/>
      <point x="310" y="1579" type="qcurve" smooth="yes"/>
      <point x="367" y="1580"/>
      <point x="412" y="1489"/>
      <point x="410" y="1419" type="qcurve" smooth="yes"/>
      <point x="398" y="1112" type="line"/>
      <point x="369" y="800" type="line"/>
      <point x="357" y="444" type="line"/>
      <point x="266" y="444" type="line"/>
      <point x="254" y="800" type="line"/>
      <point x="227" y="1112" type="line"/>
    </contour>
  </outline>
</glyph>
<glyph name="quotedbl" format="2">
  <advance width="1013"/>
  <unicode hex="0022"/>
  <outline>
    <contour>
      <point x="249" y="958" type="line"/>
      <point x="171" y="1422" type="line"/>
      <point x="171" y="1471"/>
      <point x="233" y="1558"/>
      <point x="297" y="1558" type="qcurve" smooth="yes"/>
      <point x="361" y="1558"/>
      <point x="423" y="1471"/>
      <point x="423" y="1422" type="qcurve"/>
      <point x="343" y="958" type="line"/>
    </contour>
    <contour>
      <point x="668" y="958" type="line"/>
      <point x="590" y="1422" type="line"/>
      <point x="590" y="1471"/>
      <point x="652" y="1558"/>
      <point x="716" y="1558" type="qcurve" smooth="yes"/>
      <point x="780" y="1558"/>
      <point x="842" y="1471"/>
      <point x="842" y="1422" type="qcurve"/>
      <point x="761" y="958" type="line"/>
    </contour>
  </outline>
</glyph>
<glyph name="numbersign" format="2">
  <advance width="1421"/>
  <unicode hex="0023"/>
  <outline>
    <contour>
      <point x="20" y="449" type="line"/>
      <point x="20" y="626" type="line"/>
      <point x="1287" y="626" type="line"/>
      <point x="1287" y="449" type="line"/>
    </contour>
    <contour>
      <point x="133" y="856" type="line"/>
      <point x="133" y="1033" type="line"/>
      <point x="1401" y="1033" type="line"/>
      <point x="1401" y="856" type="line"/>
    </contour>
    <contour>
      <point x="121" y="-59" type="line"/>
      <point x="712" y="1549" type="line"/>
      <point x="816" y="1522" type="line"/>
      <point x="225" y="-87" type="line"/>
    </contour>
    <contour>
      <point x="615" y="-59" type="line"/>
      <point x="1206" y="1549" type="line"/>
      <point x="1311" y="1522" type="line"/>
      <point x="720" y="-87" type="line"/>
    </contour>
  </outline>
</glyph>
<glyph name="plus" format="2">
  <advance width="1095"/>
  <unicode hex="002B"/>
  <outline>
    <contour>
      <point x="80" y="551" type="line"/>
      <point x="80" y="713" type="line"/>
      <point x="1015" y="713" type="line"/>
      <point x="1015" y="551" type="line"/>
    </contour>
    <contour>
      <point x="461" y="193" type="line"/>
      <point x="461" y="1071" type="line"/>
      <point x="634" y="1071" type="line"/>
      <point x="634" y="193" type="line"/>
    </contour>
  </outline>
</glyph>
<glyph name="zero" format="2">
  <advance width="1239"/>
  <unicode hex="0030"/>
  <outline>
    <contour>
      <point x="74" y="746" type="qcurve" smooth="yes"/>
      <point x="74" y="1090"/>
      <point x="381" y="1520"/>
      <point x="621" y="1520" type="qcurve" smooth="yes"/>
      <point x="865" y="1520"/>
      <point x="1165" y="1097"/>
      <point x="1165" y="754" type="qcurve" smooth="yes"/>
      <point x="1165" y="433"/>
      <point x="871" y="-22"/>
      <point x="626" y="-22" type="qcurve" smooth="yes"/>
      <point x="379" y="-22"/>
      <point x="74" y="400"/>
    </contour>
    <contour>
      <point x="267" y="771" type="qcurve" smooth="yes"/>
      <point x="268" y="476"/>
      <point x="460" y="87"/>
      <point x="619" y="87" type="qcurve" smooth="yes"/>
      <point x="790" y="87"/>
      <point x="971" y="443"/>
      <point x="973" y="747" type="qcurve" smooth="yes"/>
      <point x="975" y="1035"/>
      <point x="784" y="1394"/>
      <point x="622" y="1394" type="qcurve" smooth="yes"/>
      <point x="450" y="1394"/>
      <point x="266" y="1064"/>
    </contour>
  </outline>
</glyph>
<glyph name="one" format="2">
  <advance width="878"/>
  <unicode hex="0031"/>
  <outline>
    <contour>
      <point x="84" y="0" type="line"/>
      <point x="84" y="91" type="line"/>
      <point x="357" y="126" type="line"/>
      <point x="357" y="753" type="line"/>
      <point x="355" y="1355" type="line"/>
      <point x="82" y="1389" type="line"/>
      <point x="82" y="1490" type="line"/>
      <point x="515" y="1513" type="line"/>
      <point x="546" y="1479" type="line"/>
      <point x="540" y="753" type="line"/>
      <point x="540" y="126" type="line"/>
      <point x="813" y="91" type="line"/>
      <point x="813" y="0" type="line"/>
    </contour>
  </outline>
</glyph>
<glyph name="seven" format="2">
  <advance width="1025"/>
  <unicode hex="0037"/>
  <outline>
    <contour>
      <point x="24" y="1092" type="line"/>
      <point x="46" y="1500" type="line"/>
      <point x="1045" y="1500" type="line"/>
      <point x="1045" y="1410" type="line"/>
      <point x="689" y="632" type="line"/>
      <point x="383" y="-53" type="line"/>
      <point x="273" y="-53" type="line"/>
      <point x="273" y="20" type="line"/>
      <point x="575" y="674" type="line"/>
      <point x="864" y="1303" type="line"/>
      <point x="832" y="1327" type="line"/>
      <point x="178" y="1327" type="line"/>
      <point x="141" y="1092" type="line"/>
    </contour>
  </outline>
</glyph>
<glyph name="eight" format="2">
  <advance width="1112"/>
  <unicode hex="0038"/>
  <outline>
    <contour>
      <point x="42" y="392" type="qcurve" smooth="yes"/>
      <point x="42" y="582"/>
      <point x="302" y="805"/>
      <point x="434" y="851" type="qcurve"/>
      <point x="507" y="794" type="line"/>
      <point x="364" y="741"/>
      <point x="176" y="556"/>
      <point x="176" y="407" type="qcurve" smooth="yes"/>
      <point x="176" y="266"/>
      <point x="380" y="83"/>
      <point x="565" y="83" type="qcurve" smooth="yes"/>
      <point x="717" y="83"/>
      <point x="918" y="247"/>
      <point x="918" y="387" type="qcurve" smooth="yes"/>
      <point x="918" y="508"/>
      <point x="746" y="649"/>
      <point x="539" y="735" type="qcurve" smooth="yes"/>
      <point x="316" y="829"/>
      <point x="135" y="1015"/>
      <point x="135" y="1166" type="qcurve" smooth="yes"/>
      <point x="135" y="1329"/>
      <point x="410" y="1530"/>
      <point x="585" y="1530" type="qcurve" smooth="yes"/>
      <point x="761" y="1530"/>
      <point x="986" y="1350"/>
      <point x="986" y="1217" type="qcurve" smooth="yes"/>
      <point x="986" y="1084"/>
      <point x="822" y="888"/>
      <point x="676" y="807" type="qcurve"/>
      <point x="593" y="862" type="line"/>
      <point x="722" y="929"/>
      <point x="851" y="1079"/>
      <point x="851" y="1189" type="qcurve" smooth="yes"/>
      <point x="851" y="1295"/>
      <point x="704" y="1424"/>
      <point x="585" y="1424" type="qcurve" smooth="yes"/>
      <point x="462" y="1424"/>
      <point x="291" y="1286"/>
      <point x="291" y="1189" type="qcurve" smooth="yes"/>
      <point x="291" y="1093"/>
      <point x="434" y="969"/>
      <point x="657" y="878" type="qcurve" smooth="yes"/>
      <point x="868" y="790"/>
      <point x="1090" y="586"/>
      <point x="1090" y="413" type="qcurve" smooth="yes"/>
      <point x="1090" y="231"/>
      <point x="802" y="-22"/>
      <point x="572" y="-22" type="qcurve" smooth="yes"/>
      <point x="320" y="-22"/>
      <point x="42" y="225"/>
    </contour>
  </outline>
</glyph>
<glyph name="semicolon" format="2">
  <advance width="669"/>
  <unicode hex="003B"/>
  <outline>
    <contour>
      <point x="182" y="-234" type="line"/>
      <point x="222" y="-204"/>
      <point x="331" y="-82"/>
      <point x="347" y="-13" type="qcurve"/>
      <point x="274" y="-11"/>
      <point x="195" y="66"/>
      <point x="195" y="128" type="qcurve" smooth="yes"/>
      <point x="195" y="188"/>
      <point x="277" y="277"/>
      <point x="341" y="277" type="qcurve" smooth="yes"/>
      <point x="402" y="277"/>
      <point x="488" y="198"/>
      <point x="488" y="118" type="qcurve" smooth="yes"/>
      <point x="488" y="-10"/>
      <point x="325" y="-225"/>
      <point x="226" y="-284" type="qcurve"/>
    </contour>
    <contour>
      <point x="194" y="863" type="qcurve" smooth="yes"/>
      <point x="194" y="922"/>
      <point x="277" y="1010"/>
      <point x="341" y="1010" type="qcurve" smooth="yes"/>
      <point x="406" y="1010"/>
      <point x="489" y="922"/>
      <point x="489" y="863" type="qcurve" smooth="yes"/>
      <point x="489" y="804"/>
      <point x="406" y="716"/>
      <point x="341" y="716" type="qcurve" smooth="yes"/>
      <point x="277" y="716"/>
      <point x="194" y="804"/>
    </contour>
  </outline>
</glyph>
<glyph name="greater" format="2">
  <advance width="756"/>
  <unicode hex="003E"/>
  <outline>
    <contour>
      <point x="66" y="276" type="qcurve" smooth="yes"/>
      <point x="202" y="412"/>
      <point x="427" y="637"/>
      <point x="431" y="637" type="qcurve"/>
      <point x="427" y="637"/>
      <point x="199" y="856"/>
      <point x="71" y="985" type="qcurve" smooth="yes"/>
      <point x="12" y="1045"/>
      <point x="107" y="1131"/>
      <point x="174" y="1079" type="qcurve" smooth="yes"/>
      <point x="242" y="1026"/>
      <point x="712" y="647"/>
      <point x="716" y="640" type="qcurve"/>
      <point x="712" y="635"/>
      <point x="244" y="237"/>
      <point x="177" y="186" type="qcurve" smooth="yes"/>
      <point x="109" y="136"/>
      <point x="11" y="218"/>
    </contour>
  </outline>
</glyph>
<glyph name="G" format="2">
  <advance width="1650"/>
  <unicode hex="0047"/>
  <outline>
    <contour>
      <point x="80" y="744" type="qcurve" smooth="yes"/>
      <point x="80" y="1070"/>
      <point x="538" y="1520"/>
      <point x="892" y="1520" type="qcurve" smooth="yes"/>
      <point x="1001" y="1520"/>
      <point x="1209" y="1479"/>
      <point x="1289" y="1445" type="qcurve"/>
      <point x="1307" y="1487" type="line"/>
      <point x="1408" y="1487" type="line"/>
      <point x="1408" y="1042" type="line"/>
      <point x="1297" y="1042" type="line"/>
      <point x="1259" y="1198" type="line" smooth="yes"/>
      <point x="1234" y="1295"/>
      <point x="1047" y="1388"/>
      <point x="897" y="1388" type="qcurve" smooth="yes"/>
      <point x="606" y="1388"/>
      <point x="278" y="1059"/>
      <point x="279" y="767" type="qcurve" smooth="yes"/>
      <point x="281" y="470"/>
      <point x="625" y="91"/>
      <point x="927" y="91" type="qcurve" smooth="yes"/>
      <point x="1054" y="91"/>
      <point x="1258" y="161"/>
      <point x="1332" y="222" type="qcurve"/>
      <point x="1332" y="522" type="line"/>
      <point x="1122" y="557" type="line"/>
      <point x="1122" y="654" type="line"/>
      <point x="1654" y="654" type="line"/>
      <point x="1654" y="557" type="line"/>
      <point x="1511" y="522" type="line"/>
      <point x="1511" y="219" type="line"/>
      <point x="1433" y="124"/>
      <point x="1115" y="-30"/>
      <point x="910" y="-30" type="qcurve" smooth="yes"/>
      <point x="546" y="-30"/>
      <point x="80" y="393"/>
    </contour>
  </outline>
</glyph>
<glyph name="K" format="2">
  <advance width="1523"/>
  <unicode hex="004B"/>
  <outline>
    <contour>
      <point x="81" y="0" type="line"/>
      <point x="81" y="97" type="line"/>
      <point x="302" y="132" type="line"/>
      <point x="304" y="752" type="line"/>
      <point x="302" y="1356" type="line"/>
      <point x="81" y="1390" type="line"/>
      <point x="81" y="1500" type="line"/>
      <point x="700" y="1500" type="line"/>
      <point x="700" y="1390" type="line"/>
      <point x="490" y="1356" type="line"/>
      <point x="488" y="752" type="line"/>
      <point x="490" y="132" type="line"/>
      <point x="708" y="97" type="line"/>
      <point x="708" y="0" type="line"/>
    </contour>
    <contour>
      <point x="404" y="484" type="line"/>
      <point x="403" y="627" type="line"/>
      <point x="1102" y="1341" type="line"/>
      <point x="947" y="1390" type="line"/>
      <point x="947" y="1500" type="line"/>
      <point x="1462" y="1500" type="line"/>
      <point x="1462" y="1390" type="line"/>
      <point x="1273" y="1342" type="line"/>
      <point x="763" y="840" type="line"/>
      <point x="726" y="807" type="line"/>
    </contour>
    <contour>
      <point x="662" y="813" type="line"/>
      <point x="783" y="942" type="line"/>
      <point x="1395" y="132" type="line"/>
      <point x="1561" y="97" type="line"/>
      <point x="1561" y="0" type="line"/>
      <point x="1000" y="0" type="line"/>
      <point x="1000" y="97" type="line"/>
      <point x="1173" y="132" type="line"/>
    </contour>
  </outline>
</glyph>
<glyph name="L" format="2">
  <advance width="1323"/>
  <unicode hex="004C"/>
  <outline>
    <contour>
      <point x="82" y="0" type="line"/>
      <point x="82" y="97" type="line"/>
      <point x="303" y="129" type="line"/>
      <point x="305" y="754" type="line"/>
      <point x="303" y="1356" type="line"/>
      <point x="82" y="1390" type="line"/>
      <point x="82" y="1500" type="line"/>
      <point x="736" y="1500" type="line"/>
      <point x="736" y="1390" type="line"/>
      <point x="491" y="1356" type="line"/>
      <point x="489" y="754" type="line"/>
      <point x="491" y="131" type="line"/>
      <point x="534" y="105" type="line"/>
      <point x="1118" y="105" type="line"/>
      <point x="1205" y="415" type="line"/>
      <point x="1323" y="415" type="line"/>
      <point x="1272" y="0" type="line"/>
    </contour>
  </outline>
</glyph>
<glyph name="P" format="2">
  <advance width="1335"/>
  <unicode hex="0050"/>
  <outline>
    <contour>
      <point x="82" y="0" type="line"/>
      <point x="82" y="97" type="line"/>
      <point x="303" y="134" type="line"/>
      <point x="305" y="754" type="line"/>
      <point x="303" y="1355" type="line"/>
      <point x="82" y="1389" type="line"/>
      <point x="82" y="1500" type="line"/>
      <point x="777" y="1500" type="line" smooth="yes"/>
      <point x="1023" y="1500"/>
      <point x="1285" y="1286"/>
      <point x="1285" y="1072" type="qcurve" smooth="yes"/>
      <point x="1285" y="865"/>
      <point x="1008" y="601"/>
      <point x="760" y="601" type="qcurve" smooth="yes"/>
      <point x="640" y="601"/>
      <point x="451" y="623"/>
      <point x="402" y="633" type="qcurve"/>
      <point x="411" y="736" type="line"/>
      <point x="476" y="721"/>
      <point x="599" y="710"/>
      <point x="708" y="710" type="qcurve" smooth="yes"/>
      <point x="891" y="710"/>
      <point x="1079" y="903"/>
      <point x="1079" y="1074" type="qcurve" smooth="yes"/>
      <point x="1079" y="1231"/>
      <point x="899" y="1386"/>
      <point x="728" y="1386" type="qcurve" smooth="yes"/>
      <point x="525" y="1386" type="line"/>
      <point x="492" y="1363" type="line"/>
      <point x="489" y="764" type="line"/>
      <point x="491" y="129" type="line"/>
      <point x="731" y="97" type="line"/>
      <point x="731" y="0" type="line"/>
    </contour>
  </outline>
</glyph>
<glyph name="U" format="2">
  <advance width="1679"/>
  <unicode hex="0055"/>
  <outline>
    <contour>
      <point x="64" y="1389" type="line"/>
      <point x="64" y="1500" type="line"/>
      <point x="684" y="1500" type="line"/>
      <point x="684" y="1389" type="line"/>
      <point x="464" y="1355" type="line"/>
      <point x="458" y="793" type="line"/>
      <point x="462" y="481" type="line" smooth="yes"/>
      <point x="465" y="286"/>
      <point x="699" y="110"/>
      <point x="893" y="110" type="qcurve" smooth="yes"/>
      <point x="1068" y="110"/>
      <point x="1309" y="300"/>
      <point x="1311" y="502" type="qcurve" smooth="yes"/>
      <point x="1313" y="793" type="line"/>
      <point x="1311" y="1355" type="line"/>
      <point x="1080" y="1390" type="line"/>
      <point x="1080" y="1500" type="line"/>
      <point x="1665" y="1500" type="line"/>
      <point x="1665" y="1389" type="line"/>
      <point x="1445" y="1355" type="line"/>
      <point x="1442" y="792" type="line"/>
      <point x="1445" y="499" type="line" smooth="yes"/>
      <point x="1448" y="238"/>
      <point x="1122" y="-31"/>
      <point x="870" y="-31" type="qcurve" smooth="yes"/>
      <point x="602" y="-31"/>
      <point x="272" y="244"/>
      <point x="274" y="489" type="qcurve" smooth="yes"/>
      <point x="276" y="795" type="line"/>
      <point x="274" y="1355" type="line"/>
    </contour>
  </outline>
</glyph>
<glyph name="asciicircum" format="2">
  <advance width="1407"/>
  <unicode hex="005E"/>
  <outline>
    <contour>
      <point x="124" y="925" type="line"/>
      <point x="198" y="1007"/>
      <point x="656" y="1509"/>
      <point x="684" y="1526" type="qcurve"/>
      <point x="708" y="1510"/>
      <point x="1208" y="1008"/>
      <point x="1282" y="926" type="qcurve"/>
      <point x="1191" y="824" type="line"/>
      <point x="1060" y="937"/>
      <point x="706" y="1246"/>
      <point x="686" y="1261" type="qcurve"/>
      <point x="662" y="1242"/>
      <point x="355" y="944"/>
      <point x="219" y="826" type="qcurve"/>
    </contour>
  </outline>
</glyph>
<glyph name="e" format="2">
  <advance width="1066"/>
  <unicode hex="0065"/>
  <outline>
    <contour>
      <point x="63" y="483" type="qcurve" smooth="yes"/>
      <point x="63" y="697"/>
      <point x="343" y="990"/>
      <point x="569" y="990" type="qcurve" smooth="yes"/>
      <point x="775" y="990"/>
      <point x="1015" y="768"/>
      <point x="1037" y="569" type="qcurve"/>
      <point x="1037" y="513" type="line"/>
      <point x="221" y="513" type="line"/>
      <point x="221" y="606" type="line"/>
      <point x="860" y="606" type="line"/>
      <point x="841" y="739"/>
      <point x="684" y="881"/>
      <point x="563" y="881" type="qcurve" smooth="yes"/>
      <point x="418" y="881"/>
      <point x="250" y="679"/>
      <point x="251" y="501" type="qcurve" smooth="yes"/>
      <point x="252" y="308"/>
      <point x="464" y="104"/>
      <point x="632" y="104" type="qcurve" smooth="yes"/>
      <point x="758" y="104"/>
      <point x="904" y="149"/>
      <point x="950" y="186" type="qcurve"/>
      <point x="1000" y="128" type="line"/>
      <point x="949" y="65"/>
      <point x="759" y="-22"/>
      <point x="617" y="-22" type="qcurve" smooth="yes"/>
      <point x="363" y="-22"/>
      <point x="63" y="242"/>
    </contour>
  </outline>
</glyph>
<glyph name="h" format="2">
  <advance width="1333"/>
  <unicode hex="0068"/>
  <outline>
    <contour>
      <point x="77" y="0" type="line"/>
      <point x="77" y="77" type="line"/>
      <point x="229" y="112" type="line"/>
      <point x="231" y="497" type="line"/>
      <point x="229" y="1379" type="line"/>
      <point x="52" y="1409" type="line"/>
      <point x="52" y="1500" type="line"/>
      <point x="344" y="1534" type="line"/>
      <point x="378" y="1533" type="line"/>
      <point x="406" y="1501" type="line"/>
      <point x="406" y="821" type="line"/>
      <point x="469" y="896"/>
      <point x="667" y="990"/>
      <point x="779" y="990" type="qcurve" smooth="yes"/>
      <point x="942" y="990"/>
      <point x="1108" y="836"/>
      <point x="1108" y="707" type="qcurve" smooth="yes"/>
      <point x="1108" y="634"/>
      <point x="1103" y="493"/>
      <point x="1103" y="490" type="qcurve" smooth="yes"/>
      <point x="1109" y="112" type="line"/>
      <point x="1267" y="77" type="line"/>
      <point x="1267" y="0" type="line"/>
      <point x="763" y="0" type="line"/>
      <point x="763" y="77" type="line"/>
      <point x="930" y="112" type="line"/>
      <point x="932" y="489" type="line"/>
      <point x="932" y="669" type="line" smooth="yes"/>
      <point x="932" y="743"/>
      <point x="824" y="849"/>
      <point x="722" y="849" type="qcurve" smooth="yes"/>
      <point x="631" y="849"/>
      <point x="460" y="773"/>
      <point x="405" y="698" type="qcurve"/>
      <point x="405" y="497" type="line"/>
      <point x="408" y="112" type="line"/>
      <point x="554" y="77" type="line"/>
      <point x="554" y="0" type="line"/>
    </contour>
  </outline>
</glyph>
<glyph name="v" format="2">
  <advance width="1097"/>
  <unicode hex="0076"/>
  <outline>
    <contour>
      <point x="-8" y="881" type="line"/>
      <point x="-8" y="968" type="line"/>
      <point x="444" y="968" type="line"/>
      <point x="444" y="881" type="line"/>
      <point x="303" y="844" type="line"/>
      <point x="431" y="522" type="line"/>
      <point x="571" y="187" type="line"/>
      <point x="708" y="519" type="line"/>
      <point x="839" y="851" type="line"/>
      <point x="693" y="881" type="line"/>
      <point x="693" y="968" type="line"/>
      <point x="1124" y="968" type="line"/>
      <point x="1124" y="881" type="line"/>
      <point x="965" y="846" type="line"/>
      <point x="809" y="479" type="line"/>
      <point x="611" y="-8" type="line"/>
      <point x="484" y="-8" type="line"/>
      <point x="286" y="465" type="line"/>
      <point x="119" y="846" type="line"/>
    </contour>
  </outline>
</glyph>
<glyph name="x" format="2">
  <advance width="1109"/>
  <unicode hex="0078"/>
  <outline>
    <contour>
      <point x="13" y="0" type="line"/>
      <point x="13" y="77" type="line"/>
      <point x="183" y="112" type="line"/>
      <point x="512" y="521" type="line"/>
      <point x="534" y="536" type="line"/>
      <point x="779" y="851" type="line"/>
      <point x="638" y="881" type="line"/>
      <point x="638" y="968" type="line"/>
      <point x="1069" y="968" type="line"/>
      <point x="1069" y="881" type="line"/>
      <point x="910" y="846" type="line"/>
      <point x="595" y="465" type="line"/>
      <point x="578" y="455" type="line"/>
      <point x="313" y="107" type="line"/>
      <point x="448" y="77" type="line"/>
      <point x="448" y="0" type="line"/>
    </contour>
    <contour>
      <point x="21" y="881" type="line"/>
      <point x="21" y="968" type="line"/>
      <point x="471" y="968" type="line"/>
      <point x="471" y="881" type="line"/>
      <point x="344" y="844" type="line"/>
      <point x="606" y="539" type="line"/>
      <point x="972" y="112" type="line"/>
      <point x="1109" y="77" type="line"/>
      <point x="1109" y="0" type="line"/>
      <point x="648" y="0" type="line"/>
      <point x="648" y="77" type="line"/>
      <point x="775" y="114" type="line"/>
      <point x="492" y="439" type="line"/>
      <point x="147" y="846" type="line"/>
    </contour>
  </outline>
</glyph>
<glyph name="asciitilde" format="2">
  <advance width="1104"/>
  <unicode hex="007E"/>
  <outline>
    <contour>
      <point x="18" y="587" type="line"/>
      <point x="81" y="689"/>
      <point x="270" y="815"/>
      <point x="364" y="813" type="qcurve"/>
      <point x="805" y="678" type="line"/>
      <point x="867" y="678"/>
      <point x="964" y="765"/>
      <point x="999" y="826" type="qcurve"/>
      <point x="1086" y="776" type="line"/>
      <point x="1034" y="655"/>
      <point x="881" y="508"/>
      <point x="747" y="509" type="qcurve"/>
      <point x="322" y="637" type="line"/>
      <point x="261" y="638"/>
      <point x="144" y="584"/>
      <point x="84" y="526" type="qcurve"/>
    </contour>
  </outline>
</glyph>
<glyph name="exclamdown" format="2">
  <advance width="625"/>
  <unicode hex="00A1"/>
  <outline>
    <contour>
      <point x="460" y="1202" type="qcurve" smooth="yes"/>
      <point x="460" y="1142"/>
      <point x="377" y="1054"/>
      <point x="312" y="1054" type="qcurve" smooth="yes"/>
      <point x="248" y="1054"/>
      <point x="165" y="1142"/>
      <point x="165" y="1202" type="qcurve" smooth="yes"/>
      <point x="165" y="1260"/>
      <point x="248" y="1348"/>
      <point x="312" y="1348" type="qcurve" smooth="yes"/>
      <point x="377" y="1348"/>
      <point x="460" y="1260"/>
    </contour>
    <contour>
      <point x="410" y="-93" type="line" smooth="yes"/>
      <point x="414" y="-161"/>
      <point x="373" y="-252"/>
      <point x="315" y="-253" type="qcurve" smooth="yes"/>
      <point x="256" y="-254"/>
      <point x="212" y="-163"/>
      <point x="215" y="-94" type="qcurve" smooth="yes"/>
      <point x="230" y="212" type="line"/>
      <point x="256" y="524" type="line"/>
      <point x="268" y="882" type="line"/>
      <point x="359" y="882" type="line"/>
      <point x="371" y="524" type="line"/>
      <point x="395" y="212" type="line"/>
    </contour>
  </outline>
</glyph>
<glyph name="currency" format="2">
  <advance width="1452"/>
  <unicode hex="00A4"/>
  <outline>
    <contour>
      <point x="163" y="796" type="qcurve" smooth="yes"/>
      <point x="163" y="1011"/>
      <point x="474" y="1320"/>
      <point x="723" y="1320" type="qcurve" smooth="yes"/>
      <point x="974" y="1320"/>
      <point x="1288" y="1031"/>
      <point x="1288" y="802" type="qcurve" smooth="yes"/>
      <point x="1288" y="588"/>
      <point x="980" y="273"/>
      <point x="730" y="273" type="qcurve" smooth="yes"/>
      <point x="479" y="273"/>
      <point x="163" y="565"/>
    </contour>
    <contour>
      <point x="332" y="816" type="qcurve" smooth="yes"/>
      <point x="333" y="646"/>
      <point x="544" y="404"/>
      <point x="721" y="404" type="qcurve" smooth="yes"/>
      <point x="911" y="404"/>
      <point x="1113" y="624"/>
      <point x="1113" y="802" type="qcurve" smooth="yes"/>
      <point x="1113" y="964"/>
      <point x="902" y="1182"/>
      <point x="724" y="1182" type="qcurve" smooth="yes"/>
      <point x="532" y="1182"/>
      <point x="331" y="983"/>
    </contour>
    <contour>
      <point x="338" y="1059" type="line"/>
      <point x="66" y="1319" type="line"/>
      <point x="187" y="1445" type="line"/>
      <point x="458" y="1187" type="line"/>
    </contour>
    <contour>
      <point x="1138" y="1059" type="line"/>
      <point x="1017" y="1187" type="line"/>
      <point x="1289" y="1445" type="line"/>
      <point x="1409" y="1319" type="line"/>
    </contour>
    <contour>
      <point x="338" y="513" type="line"/>
      <point x="459" y="385" type="line"/>
      <point x="187" y="127" type="line"/>
      <point x="66" y="254" type="line"/>
    </contour>
    <contour>
      <point x="1136" y="515" type="line"/>
      <point x="1409" y="254" type="line"/>
      <point x="1289" y="127" type="line"/>
      <point x="1015" y="387" type="line"/>
    </contour>
  </outline>
</glyph>
<glyph name="brokenbar" format="2">
  <advance width="635"/>
  <unicode hex="00A6"/>
  <outline>
    <contour>
      <point x="239" y="688" type="line"/>
      <point x="248" y="900" type="line"/>
      <point x="236" y="1208" type="line"/>
      <point x="225" y="1480" type="line"/>
      <point x="410" y="1550" type="line"/>
      <point x="399" y="1208" type="line"/>
      <point x="385" y="900" type="line"/>
      <point x="387" y="738" type="line"/>
    </contour>
    <contour>
      <point x="225" y="-540" type="line"/>
      <point x="236" y="-128" type="line"/>
      <point x="250" y="180" type="line"/>
      <point x="248" y="348" type="line"/>
      <point x="396" y="408" type="line"/>
      <point x="387" y="180" type="line"/>
      <point x="399" y="-128" type="line"/>
      <point x="410" y="-470" type="line"/>
    </contour>
  </outline>
</glyph>
<glyph name="section" format="2">
  <advance width="1134"/>
  <unicode hex="00A7"/>
  <outline>
    <contour>
      <point x="1033" y="136" type="qcurve" smooth="yes"/>
      <point x="1033" y="-36"/>
      <point x="806" y="-253"/>
      <point x="620" y="-253" type="qcurve" smooth="yes"/>
      <point x="489" y="-253"/>
      <point x="308" y="-184"/>
      <point x="258" y="-135" type="qcurve"/>
      <point x="218" y="-235" type="line"/>
      <point x="125" y="-235" type="line"/>
      <point x="125" y="192" type="line"/>
      <point x="227" y="192" type="line"/>
      <point x="246" y="99" type="line" smooth="yes"/>
      <point x="271" y="-30"/>
      <point x="466" y="-138"/>
      <point x="602" y="-138" type="qcurve" smooth="yes"/>
      <point x="749" y="-138"/>
      <point x="879" y="-14"/>
      <point x="879" y="90" type="qcurve" smooth="yes"/>
      <point x="879" y="213"/>
      <point x="707" y="329"/>
      <point x="525" y="398" type="qcurve" smooth="yes"/>
      <point x="351" y="464"/>
      <point x="165" y="632"/>
      <point x="165" y="769" type="qcurve" smooth="yes"/>
      <point x="165" y="857"/>
      <point x="248" y="1000"/>
      <point x="311" y="1045" type="qcurve"/>
      <point x="267" y="1081"/>
      <point x="223" y="1176"/>
      <point x="223" y="1239" type="qcurve" smooth="yes"/>
      <point x="223" y="1349"/>
      <point x="406" y="1512"/>
      <point x="562" y="1512" type="qcurve" smooth="yes"/>
      <point x="648" y="1512"/>
      <point x="761" y="1471"/>
      <point x="800" y="1448" type="qcurve"/>
      <point x="814" y="1480" type="line"/>
      <point x="901" y="1480" type="line"/>
      <point x="901" y="1184" type="line"/>
      <point x="800" y="1184" type="line"/>
      <point x="777" y="1299" type="line" smooth="yes"/>
      <point x="768" y="1343"/>
      <point x="661" y="1405"/>
      <point x="570" y="1405" type="qcurve" smooth="yes"/>
      <point x="471" y="1405"/>
      <point x="376" y="1333"/>
      <point x="376" y="1272" type="qcurve" smooth="yes"/>
      <point x="376" y="1209"/>
      <point x="475" y="1141"/>
      <point x="639" y="1096" type="qcurve" smooth="yes"/>
      <point x="799" y="1052"/>
      <point x="995" y="912"/>
      <point x="995" y="769" type="qcurve" smooth="yes"/>
      <point x="995" y="667"/>
      <point x="866" y="515"/>
      <point x="758" y="485" type="qcurve"/>
      <point x="877" y="431"/>
      <point x="1033" y="268"/>
    </contour>
    <contour>
      <point x="309" y="808" type="qcurve" smooth="yes"/>
      <point x="309" y="730"/>
      <point x="429" y="613"/>
      <point x="601" y="549" type="qcurve"/>
      <point x="711" y="549"/>
      <point x="845" y="653"/>
      <point x="845" y="737" type="qcurve" smooth="yes"/>
      <point x="845" y="819"/>
      <point x="706" y="897"/>
      <point x="548" y="942" type="qcurve" smooth="yes"/>
      <point x="508" y="952"/>
      <point x="452" y="969"/>
      <point x="425" y="979" type="qcurve"/>
      <point x="376" y="958"/>
      <point x="309" y="871"/>
    </contour>
  </outline>
</glyph>
<glyph name="logicalnot" format="2">
  <advance width="1095"/>
  <unicode hex="00AC"/>
  <outline>
    <contour>
      <point x="65" y="715" type="line"/>
      <point x="1000" y="715" type="line"/>
      <point x="1000" y="200" type="line"/>
      <point x="834" y="200" type="line"/>
      <point x="834" y="556" type="line"/>
      <point x="65" y="556" type="line"/>
    </contour>
  </outline>
</glyph>
<glyph name="registered" format="2">
  <advance width="2157"/>
  <unicode hex="00AE"/>
  <outline>
    <contour>
      <point x="101" y="685" type="qcurve" smooth="yes"/>
      <point x="101" y="1063"/>
      <point x="653" y="1570"/>
      <point x="1080" y="1570" type="qcurve" smooth="yes"/>
      <point x="1506" y="1570"/>
      <point x="2056" y="1089"/>
      <point x="2056" y="706" type="qcurve" smooth="yes"/>
      <point x="2056" y="288"/>
      <point x="1514" y="-242"/>
      <point x="1093" y="-242" type="qcurve" smooth="yes"/>
      <point x="660" y="-242"/>
      <point x="101" y="275"/>
    </contour>
    <contour>
      <point x="260" y="681" type="qcurve" smooth="yes"/>
      <point x="260" y="333"/>
      <point x="748" y="-122"/>
      <point x="1110" y="-122" type="qcurve" smooth="yes"/>
      <point x="1462" y="-122"/>
      <point x="1897" y="358"/>
      <point x="1897" y="698" type="qcurve" smooth="yes"/>
      <point x="1897" y="1010"/>
      <point x="1435" y="1450"/>
      <point x="1059" y="1450" type="qcurve" smooth="yes"/>
      <point x="702" y="1450"/>
      <point x="260" y="1001"/>
    </contour>
    <contour>
      <point x="621" y="176" type="line"/>
      <point x="611" y="263" type="line"/>
      <point x="737" y="287" type="line"/>
      <point x="747" y="723" type="line"/>
      <point x="737" y="1091" type="line"/>
      <point x="600" y="1114" type="line"/>
      <point x="600" y="1209" type="line"/>
      <point x="1108" y="1209" type="line" smooth="yes"/>
      <point x="1274" y="1209"/>
      <point x="1436" y="1083"/>
      <point x="1436" y="969" type="qcurve" smooth="yes"/>
      <point x="1436" y="842"/>
      <point x="1240" y="666"/>
      <point x="1108" y="666" type="qcurve" smooth="yes"/>
      <point x="1059" y="666"/>
      <point x="891" y="675"/>
      <point x="868" y="675" type="qcurve"/>
      <point x="868" y="757" type="line"/>
      <point x="1042" y="757" type="line" smooth="yes"/>
      <point x="1170" y="757"/>
      <point x="1260" y="868"/>
      <point x="1260" y="960" type="qcurve" smooth="yes"/>
      <point x="1260" y="1041"/>
      <point x="1161" y="1111"/>
      <point x="1050" y="1111" type="qcurve" smooth="yes"/>
      <point x="933" y="1111" type="line"/>
      <point x="910" y="1098" type="line"/>
      <point x="898" y="723" type="line"/>
      <point x="908" y="287" type="line"/>
      <point x="1049" y="263" type="line"/>
      <point x="1049" y="176" type="line"/>
    </contour>
    <contour>
      <point x="1004" y="711" type="line"/>
      <point x="1166" y="738" type="line"/>
      <point x="1433" y="390" type="line" smooth="yes"/>
      <point x="1506" y="292"/>
      <point x="1610" y="263"/>
      <point x="1652" y="263" type="qcurve"/>
      <point x="1652" y="176" type="line"/>
      <point x="1440" y="176" type="line"/>
      <point x="1401" y="190" type="line"/>
    </contour>
  </outline>
</glyph>
<glyph name="ae" format="2">
  <advance width="1702"/>
  <unicode hex="00E6"/>
  <outline>
    <contour>
      <point x="38" y="237" type="qcurve" smooth="yes"/>
      <point x="38" y="374"/>
      <point x="397" y="569"/>
      <point x="754" y="605" type="qcurve"/>
      <point x="762" y="526" type="line"/>
      <point x="508" y="499"/>
      <point x="226" y="379"/>
      <point x="226" y="248" type="qcurve" smooth="yes"/>
      <point x="226" y="176"/>
      <point x="317" y="95"/>
      <point x="408" y="95" type="qcurve" smooth="yes"/>
      <point x="513" y="95"/>
      <point x="703" y="207"/>
      <point x="750" y="273" type="qcurve"/>
      <point x="734" y="305"/>
      <point x="717" y="412"/>
      <point x="717" y="462" type="qcurve" smooth="yes"/>
      <point x="717" y="602" type="line" smooth="yes"/>
      <point x="718" y="768"/>
      <point x="598" y="878"/>
      <point x="492" y="878" type="qcurve" smooth="yes"/>
      <point x="391" y="878"/>
      <point x="269" y="834"/>
      <point x="237" y="809" type="qcurve"/>
      <point x="261" y="789"/>
      <point x="291" y="745"/>
      <point x="294" y="722" type="qcurve" smooth="yes"/>
      <point x="300" y="683"/>
      <point x="252" y="627"/>
      <point x="209" y="627" type="qcurve" smooth="yes"/>
      <point x="166" y="627"/>
      <point x="112" y="699"/>
      <point x="112" y="766" type="qcurve" smooth="yes"/>
      <point x="112" y="857"/>
      <point x="332" y="991"/>
      <point x="504" y="991" type="qcurve" smooth="yes"/>
      <point x="639" y="991"/>
      <point x="798" y="895"/>
      <point x="827" y="826" type="qcurve"/>
      <point x="834" y="826" type="line"/>
      <point x="873" y="890"/>
      <point x="1083" y="990"/>
      <point x="1208" y="990" type="qcurve" smooth="yes"/>
      <point x="1413" y="990"/>
      <point x="1651" y="768"/>
      <point x="1672" y="570" type="qcurve"/>
      <point x="1672" y="513" type="line"/>
      <point x="858" y="513" type="line"/>
      <point x="858" y="606" type="line"/>
      <point x="1497" y="606" type="line"/>
      <point x="1478" y="739"/>
      <point x="1321" y="881"/>
      <point x="1199" y="881" type="qcurve" smooth="yes"/>
      <point x="1050" y="881"/>
      <point x="885" y="677"/>
      <point x="886" y="503" type="qcurve" smooth="yes"/>
      <point x="887" y="310"/>
      <point x="1102" y="104"/>
      <point x="1281" y="104" type="qcurve" smooth="yes"/>
      <point x="1392" y="104"/>
      <point x="1536" y="148"/>
      <point x="1583" y="186" type="qcurve"/>
      <point x="1633" y="128" type="line"/>
      <point x="1584" y="65"/>
      <point x="1397" y="-22"/>
      <point x="1253" y="-22" type="qcurve" smooth="yes"/>
      <point x="1075" y="-22"/>
      <point x="846" y="107"/>
      <point x="809" y="173" type="qcurve"/>
      <point x="749" y="106"/>
      <point x="505" y="-16"/>
      <point x="349" y="-16" type="qcurve" smooth="yes"/>
      <point x="192" y="-16"/>
      <point x="38" y="131"/>
    </contour>
  </outline>
</glyph>
<glyph name="kgreenlandic" format="2">
  <advance width="1168"/>
  <unicode hex="0138"/>
  <outline>
    <contour>
      <point x="75" y="0" type="line"/>
      <point x="75" y="77" type="line"/>
      <point x="225" y="112" type="line"/>
      <point x="228" y="527" type="line"/>
      <point x="225" y="856" type="line"/>
      <point x="75" y="891" type="line"/>
      <point x="75" y="968" type="line"/>
      <point x="550" y="968" type="line"/>
      <point x="550" y="891" type="line"/>
      <point x="403" y="856" type="line"/>
      <point x="401" y="507" type="line"/>
      <point x="403" y="112" type="line"/>
      <point x="550" y="77" type="line"/>
      <point x="550" y="0" type="line"/>
    </contour>
    <contour>
      <point x="364" y="327" type="line"/>
      <point x="364" y="442" type="line"/>
      <point x="847" y="851" type="line"/>
      <point x="714" y="881" type="line"/>
      <point x="714" y="968" type="line"/>
      <point x="1136" y="968" type="line"/>
      <point x="1136" y="881" type="line"/>
      <point x="986" y="846" type="line"/>
    </contour>
    <contour>
      <point x="533" y="529" type="line"/>
      <point x="656" y="635" type="line"/>
      <point x="1079" y="112" type="line"/>
      <point x="1202" y="77" type="line"/>
      <point x="1202" y="0" type="line"/>
      <point x="811" y="0" type="line"/>
      <point x="798" y="76" type="line"/>
      <point x="872" y="108" type="line"/>
    </contour>
  </outline>
</glyph>
<glyph name="jdotless" format="2">
  <advance width="585"/>
  <unicode hex="0237"/>
  <outline>
    <contour>
      <point x="-104" y="-393" type="line"/>
      <point x="-58" y="-321" type="line"/>
      <point x="-43" y="-330" type="line" smooth="yes"/>
      <point x="-13" y="-347"/>
      <point x="71" y="-362"/>
      <point x="109" y="-362" type="qcurve" smooth="yes"/>
      <point x="179" y="-362"/>
      <point x="244" y="-281"/>
      <point x="244" y="-167" type="qcurve" smooth="yes"/>
      <point x="242" y="495" type="line"/>
      <point x="235" y="813" type="line"/>
      <point x="54" y="843" type="line"/>
      <point x="54" y="934" type="line"/>
      <point x="355" y="968" type="line"/>
      <point x="402" y="968" type="line"/>
      <point x="425" y="930" type="line"/>
      <point x="418" y="495" type="line"/>
      <point x="421" y="-214" type="line" smooth="yes"/>
      <point x="421" y="-352"/>
      <point x="271" y="-492"/>
      <point x="166" y="-492" type="qcurve" smooth="yes"/>
      <point x="76" y="-492"/>
      <point x="-54" y="-444"/>
      <point x="-94" y="-404" type="qcurve" smooth="yes"/>
    </contour>
  </outline>
</glyph>
<glyph name="schwa" format="2">
  <advance width="1065"/>
  <unicode hex="0259"/>
  <outline>
    <contour>
      <point x="1001" y="485" type="qcurve" smooth="yes"/>
      <point x="1001" y="271"/>
      <point x="722" y="-22"/>
      <point x="496" y="-22" type="qcurve" smooth="yes"/>
      <point x="289" y="-22"/>
      <point x="49" y="200"/>
      <point x="28" y="399" type="qcurve"/>
      <point x="28" y="455" type="line"/>
      <point x="844" y="455" type="line"/>
      <point x="844" y="362" type="line"/>
      <point x="205" y="362" type="line"/>
      <point x="223" y="229"/>
      <point x="380" y="87"/>
      <point x="502" y="87" type="qcurve" smooth="yes"/>
      <point x="646" y="87"/>
      <point x="814" y="289"/>
      <point x="813" y="467" type="qcurve" smooth="yes"/>
      <point x="812" y="661"/>
      <point x="600" y="864"/>
      <point x="422" y="864" type="qcurve" smooth="yes"/>
      <point x="306" y="864"/>
      <point x="160" y="819"/>
      <point x="114" y="782" type="qcurve"/>
      <point x="64" y="840" type="line"/>
      <point x="116" y="903"/>
      <point x="312" y="990"/>
      <point x="466" y="990" type="qcurve" smooth="yes"/>
      <point x="702" y="990"/>
      <point x="1001" y="726"/>
    </contour>
  </outline>
</glyph>
<glyph name="quoteleft" format="2">
  <advance width="613"/>
  <unicode hex="2018"/>
  <outline>
    <contour>
      <point x="484" y="1514" type="line"/>
      <point x="443" y="1483"/>
      <point x="333" y="1360"/>
      <point x="317" y="1290" type="qcurve"/>
      <point x="390" y="1291"/>
      <point x="473" y="1214"/>
      <point x="473" y="1152" type="qcurve" smooth="yes"/>
      <point x="473" y="1092"/>
      <point x="391" y="1012"/>
      <point x="327" y="1012" type="qcurve" smooth="yes"/>
      <point x="265" y="1012"/>
      <point x="169" y="1108"/>
      <point x="169" y="1189" type="qcurve" smooth="yes"/>
      <point x="169" y="1313"/>
      <point x="337" y="1511"/>
      <point x="442" y="1562" type="qcurve"/>
    </contour>
  </outline>
</glyph>
<glyph name="quotedblbase" format="2">
  <advance width="1069"/>
  <unicode hex="201E"/>
  <outline>
    <contour>
      <point x="150" y="-237" type="line"/>
      <point x="191" y="-206"/>
      <point x="302" y="-82"/>
      <point x="318" y="-12" type="qcurve"/>
      <point x="245" y="-13"/>
      <point x="162" y="63"/>
      <point x="162" y="125" type="qcurve" smooth="yes"/>
      <point x="162" y="186"/>
      <point x="244" y="266"/>
      <point x="308" y="266" type="qcurve" smooth="yes"/>
      <point x="370" y="266"/>
      <point x="466" y="169"/>
      <point x="466" y="88" type="qcurve" smooth="yes"/>
      <point x="466" y="-36"/>
      <point x="298" y="-234"/>
      <point x="192" y="-285" type="qcurve"/>
    </contour>
    <contour>
      <point x="605" y="-237" type="line"/>
      <point x="646" y="-206"/>
      <point x="757" y="-82"/>
      <point x="773" y="-12" type="qcurve"/>
      <point x="700" y="-13"/>
      <point x="617" y="63"/>
      <point x="617" y="125" type="qcurve" smooth="yes"/>
      <point x="617" y="186"/>
      <point x="699" y="266"/>
      <point x="763" y="266" type="qcurve" smooth="yes"/>
      <point x="825" y="266"/>
      <point x="921" y="169"/>
      <point x="921" y="88" type="qcurve" smooth="yes"/>
      <point x="921" y="-36"/>
      <point x="753" y="-234"/>
      <point x="647" y="-285" type="qcurve"/>
    </contour>
  </outline>
</glyph>
<glyph name="commercialMinusSign" format="2">
  <advance width="899"/>
  <unicode hex="2052"/>
  <outline>
    <contour>
      <point x="75" y="-3" type="line"/>
      <point x="682" y="1537" type="line"/>
      <point x="819" y="1496" type="line"/>
      <point x="211" y="-44" type="line"/>
    </contour>
    <contour>
      <point x="528" y="127" type="qcurve" smooth="yes"/>
      <point x="528" y="187"/>
      <point x="613" y="277"/>
      <point x="678" y="277" type="qcurve" smooth="yes"/>
      <point x="744" y="277"/>
      <point x="828" y="187"/>
      <point x="828" y="127" type="qcurve" smooth="yes"/>
      <point x="828" y="68"/>
      <point x="744" y="-22"/>
      <point x="678" y="-22" type="qcurve" smooth="yes"/>
      <point x="613" y="-22"/>
      <point x="528" y="68"/>
    </contour>
    <contour>
      <point x="105" y="1368" type="qcurve" smooth="yes"/>
      <point x="105" y="1428"/>
      <point x="190" y="1518"/>
      <point x="255" y="1518" type="qcurve" smooth="yes"/>
      <point x="321" y="1518"/>
      <point x="406" y="1428"/>
      <point x="406" y="1368" type="qcurve" smooth="yes"/>
      <point x="406" y="1309"/>
      <point x="321" y="1219"/>
      <point x="255" y="1219" type="qcurve" smooth="yes"/>
      <point x="190" y="1219"/>
      <point x="105" y="1309"/>
    </contour>
  </outline>
</glyph>
<glyph name="cedi" format="2">
  <advance width="1384"/>
  <unicode hex="20B5"/>
  <outline>
    <contour>
      <point x="114" y="693" type="qcurve" smooth="yes"/>
      <point x="114" y="996"/>
      <point x="495" y="1448"/>
      <point x="818" y="1448" type="qcurve" smooth="yes"/>
      <point x="1038.0" y="1448.0"/>
      <point x="1323.0" y="1206.0"/>
      <point x="1323" y="992" type="qcurve"/>
      <point x="1190" y="992" type="line"/>
      <point x="1190.0" y="1159.0"/>
      <point x="1032.0" y="1335.0"/>
      <point x="823" y="1335" type="qcurve" smooth="yes"/>
      <point x="590" y="1335"/>
      <point x="313" y="1011"/>
      <point x="315" y="728" type="qcurve" smooth="yes"/>
      <point x="317" y="455"/>
      <point x="603" y="166"/>
      <point x="823" y="166" type="qcurve" smooth="yes"/>
      <point x="981" y="166"/>
      <point x="1222" y="266"/>
      <point x="1283" y="349" type="qcurve"/>
      <point x="1367" y="278" type="line"/>
      <point x="1290" y="170"/>
      <point x="994" y="18"/>
      <point x="824" y="18" type="qcurve" smooth="yes"/>
      <point x="480" y="18"/>
      <point x="114" y="423"/>
    </contour>
    <contour>
      <point x="472" y="-148" type="line"/>
      <point x="532" y="97" type="line"/>
      <point x="549" y="93" type="line"/>
      <point x="726" y="829" type="line"/>
      <point x="838" y="763" type="line"/>
      <point x="669" y="63" type="line"/>
      <point x="687" y="58" type="line"/>
      <point x="640" y="-136" type="line"/>
    </contour>
    <contour>
      <point x="888" y="1571" type="line"/>
      <point x="1054" y="1572" type="line"/>
      <point x="1008" y="1384" type="line"/>
      <point x="991" y="1388" type="line"/>
      <point x="838" y="763" type="line"/>
      <point x="726" y="829" type="line"/>
      <point x="868" y="1414" type="line"/>
      <point x="850" y="1419" type="line"/>
    </contour>
  </outline>
</glyph>
<glyph name="leftanglebracket" format="2">
  <advance width="1044"/>
  <unicode hex="27E8"/>
  <outline>
    <contour>
      <point x="950" y="1515" type="line"/>
      <point x="1036" y="1437" type="line"/>
      <point x="201" y="711" type="line"/>
      <point x="1042" y="-80" type="line"/>
      <point x="937" y="-173" type="line"/>
      <point x="24" y="621" type="line"/>
      <point x="24" y="803" type="line"/>
    </contour>
  </outline>
</glyph>
<glyph name="fl" format="2">
  <advance width="1338"/>
  <unicode hex="FB02"/>
  <outline>
    <contour>
      <point x="57" y="0" type="line"/>
      <point x="57" y="77" type="line"/>
      <point x="236" y="112" type="line"/>
      <point x="238" y="523" type="line"/>
      <point x="235" y="836" type="line"/>
      <point x="67" y="847" type="line"/>
      <point x="57" y="938" type="line"/>
      <point x="237" y="955" type="line"/>
      <point x="240" y="1288" type="line" smooth="yes"/>
      <point x="241" y="1394"/>
      <point x="378" y="1520"/>
      <point x="484" y="1520" type="qcurve" smooth="yes"/>
      <point x="528" y="1520"/>
      <point x="615" y="1510"/>
      <point x="643" y="1503" type="qcurve" smooth="yes"/>
      <point x="708" y="1489" type="line"/>
      <point x="1045" y="1534" type="line"/>
      <point x="1079" y="1532" type="line"/>
      <point x="1102" y="1501" type="line"/>
      <point x="1100" y="527" type="line"/>
      <point x="1102" y="112" type="line"/>
      <point x="1272" y="77" type="line"/>
      <point x="1272" y="0" type="line"/>
      <point x="766" y="0" type="line"/>
      <point x="766" y="77" type="line"/>
      <point x="923" y="112" type="line"/>
      <point x="925" y="527" type="line"/>
      <point x="923" y="1379" type="line"/>
      <point x="620" y="1406" type="line" smooth="yes"/>
      <point x="603" y="1408"/>
      <point x="571" y="1409"/>
      <point x="551" y="1409" type="qcurve" smooth="yes"/>
      <point x="479" y="1409"/>
      <point x="405" y="1339"/>
      <point x="406" y="1258" type="qcurve" smooth="yes"/>
      <point x="407" y="957" type="line"/>
      <point x="697" y="957" type="line"/>
      <point x="697" y="858" type="line"/>
      <point x="407" y="847" type="line"/>
      <point x="410" y="523" type="line"/>
      <point x="424" y="112" type="line"/>
      <point x="606" y="77" type="line"/>
      <point x="606" y="0" type="line"/>
    </contour>
  </outline>
</glyph>
<glyph name="f_f_i" format="2">
  <advance width="2023"/>
  <unicode hex="FB03"/>
  <outline>
    <contour>
      <point x="54" y="0" type="line"/>
      <point x="54" y="77" type="line"/>
      <point x="235" y="112" type="line"/>
      <point x="237" y="513" type="line"/>
      <point x="234" y="835" type="line"/>
      <point x="68" y="847" type="line"/>
      <point x="58" y="938" type="line"/>
      <point x="236" y="956" type="line"/>
      <point x="240" y="1189" type="line" smooth="yes"/>
      <point x="242" y="1335"/>
      <point x="405" y="1483"/>
      <point x="512" y="1483" type="qcurve" smooth="yes"/>
      <point x="547" y="1483"/>
      <point x="655" y="1468"/>
      <point x="689" y="1461" type="qcurve"/>
      <point x="707" y="1456" type="line"/>
      <point x="691" y="1354" type="line"/>
      <point x="671" y="1360" type="line" smooth="yes"/>
      <point x="660" y="1363"/>
      <point x="603" y="1374"/>
      <point x="578" y="1374" type="qcurve" smooth="yes"/>
      <point x="497" y="1374"/>
      <point x="403" y="1282"/>
      <point x="404" y="1162" type="qcurve" smooth="yes"/>
      <point x="406" y="956" type="line"/>
      <point x="912" y="954" type="line"/>
      <point x="915" y="1242" type="line" smooth="yes"/>
      <point x="917" y="1393"/>
      <point x="1101" y="1520"/>
      <point x="1207" y="1519" type="qcurve" smooth="yes"/>
      <point x="1275" y="1518"/>
      <point x="1383" y="1492"/>
      <point x="1428" y="1473" type="qcurve" smooth="yes"/>
      <point x="1441" y="1467" type="line"/>
      <point x="1423" y="1365" type="line"/>
      <point x="1413" y="1371" type="line"/>
      <point x="1395" y="1378"/>
      <point x="1288" y="1410"/>
      <point x="1239" y="1410" type="qcurve" smooth="yes"/>
      <point x="1176" y="1410"/>
      <point x="1079" y="1336"/>
      <point x="1080" y="1214" type="qcurve" smooth="yes"/>
      <point x="1083" y="955" type="line"/>
      <point x="1726" y="968" type="line"/>
      <point x="1769" y="968" type="line"/>
      <point x="1792" y="929" type="line"/>
      <point x="1785" y="513" type="line"/>
      <point x="1787" y="112" type="line"/>
      <point x="1967" y="77" type="line"/>
      <point x="1967" y="0" type="line"/>
      <point x="1441" y="0" type="line"/>
      <point x="1441" y="77" type="line"/>
      <point x="1608" y="112" type="line"/>
      <point x="1610" y="513" type="line"/>
      <point x="1603" y="833" type="line"/>
      <point x="1573" y="854" type="line"/>
      <point x="1082" y="845" type="line"/>
      <point x="1085" y="513" type="line"/>
      <point x="1100" y="112" type="line"/>
      <point x="1272" y="77" type="line"/>
      <point x="1272" y="0" type="line"/>
      <point x="754" y="0" type="line"/>
      <point x="754" y="78" type="line"/>
      <point x="911" y="112" type="line"/>
      <point x="913" y="513" type="line"/>
      <point x="910" y="834" type="line"/>
      <point x="406" y="852" type="line"/>
      <point x="408" y="513" type="line"/>
      <point x="423" y="112" type="line"/>
      <point x="585" y="77" type="line"/>
      <point x="585" y="0" type="line"/>
    </contour>
    <contour>
      <point x="1559" y="1309" type="qcurve" smooth="yes"/>
      <point x="1559" y="1369"/>
      <point x="1628" y="1435"/>
      <point x="1691" y="1435" type="qcurve" smooth="yes"/>
      <point x="1749" y="1435"/>
      <point x="1823" y="1365"/>
      <point x="1823" y="1309" type="qcurve" smooth="yes"/>
      <point x="1823" y="1248"/>
      <point x="1754" y="1183"/>
      <point x="1691" y="1183" type="qcurve" smooth="yes"/>
      <point x="1632" y="1183"/>
      <point x="1559" y="1252"/>
    </contour>
  </outline>
</glyph>
<glyph name="dotaccent_macron.uc" format="2">
  <advance width="1024"/>
  <outline>
    <contour>
      <point x="391" y="1722" type="qcurve" smooth="yes"/>
      <point x="391" y="1779"/>
      <point x="453" y="1840"/>
      <point x="512" y="1840" type="qcurve" smooth="yes"/>
      <point x="567" y="1840"/>
      <point x="633" y="1775"/>
      <point x="633" y="1722" type="qcurve" smooth="yes"/>
      <point x="633" y="1665"/>
      <point x="571" y="1604"/>
      <point x="512" y="1604" type="qcurve" smooth="yes"/>
      <point x="457" y="1604"/>
      <point x="391" y="1669"/>
    </contour>
    <contour>
      <point x="216" y="1931" type="line"/>
      <point x="216" y="2068" type="line"/>
      <point x="808" y="2068" type="line"/>
      <point x="808" y="1931" type="line"/>
    </contour>
  </outline>
</glyph>
<glyph name="hookabove" format="2">
  <advance width="1024"/>
  <outline>
    <contour>
      <point x="396" y="925" type="line"/>
      <point x="396" y="1068" type="line"/>
      <point x="465" y="1168" type="line"/>
      <point x="485" y="1162"/>
      <point x="523" y="1155"/>
      <point x="540" y="1155" type="qcurve" smooth="yes"/>
      <point x="588" y="1155"/>
      <point x="650" y="1204"/>
      <point x="650" y="1251" type="qcurve" smooth="yes"/>
      <point x="650" y="1295"/>
      <point x="583" y="1340"/>
      <point x="528" y="1340" type="qcurve" smooth="yes"/>
      <point x="473" y="1340"/>
      <point x="357" y="1314"/>
      <point x="312" y="1294" type="qcurve"/>
      <point x="259" y="1408" type="line"/>
      <point x="330" y="1437"/>
      <point x="465" y="1471"/>
      <point x="525" y="1471" type="qcurve" smooth="yes"/>
      <point x="654" y="1471"/>
      <point x="818" y="1356"/>
      <point x="818" y="1243" type="qcurve" smooth="yes"/>
      <point x="818" y="1149"/>
      <point x="706" y="1032"/>
      <point x="628" y="1032" type="qcurve" smooth="yes"/>
      <point x="598" y="1032"/>
      <point x="539" y="1041"/>
      <point x="523" y="1045" type="qcurve"/>
      <point x="523" y="925" type="line"/>
    </contour>
  </outline>
</glyph>
<glyph name="tilde_macron" format="2">
  <advance width="1024"/>
  <outline>
    <contour>
      <point x="216" y="1479" type="line"/>
      <point x="216" y="1616" type="line"/>
      <point x="808" y="1616" type="line"/>
      <point x="808" y="1479" type="line"/>
    </contour>
    <contour>
      <point x="125" y="1234" type="line"/>
      <point x="160" y="1297"/>
      <point x="300" y="1402"/>
      <point x="371" y="1402" type="qcurve" smooth="yes"/>
      <point x="414" y="1402"/>
      <point x="489" y="1374"/>
      <point x="528" y="1348" type="qcurve" smooth="yes"/>
      <point x="556" y="1331"/>
      <point x="647" y="1279"/>
      <point x="690" y="1279" type="qcurve" smooth="yes"/>
      <point x="732" y="1279"/>
      <point x="811" y="1332"/>
      <point x="835" y="1369" type="qcurve"/>
      <point x="899" y="1290" type="line"/>
      <point x="860" y="1214"/>
      <point x="731" y="1132"/>
      <point x="673" y="1132" type="qcurve" smooth="yes"/>
      <point x="623" y="1132"/>
      <point x="524" y="1177"/>
      <point x="495" y="1197" type="qcurve" smooth="yes"/>
      <point x="461" y="1220"/>
      <point x="384" y="1255"/>
      <point x="354" y="1255" type="qcurve" smooth="yes"/>
      <point x="304" y="1255"/>
      <point x="214" y="1183"/>
      <point x="195" y="1155" type="qcurve"/>
    </contour>
  </outline>
</glyph>
